# File created by Blade
# Date/Time:  Tue Apr 07 20:45:22 2015
# Frame Rate: 120.000 fps
#------------------------------------------------------
:FULLY-SPECIFIED
:DEGREES
836
root 5.174330 34.689611 -4.003375 20.203242 -23.761417 -35.525294
Spine 8.286087 21.671006 27.211949
Head 3.070995 1.037698 2.104050
LeftShoulder -19.723355 33.043749 31.037573
LeftArm 50.085743 -73.470611 -53.457886
LeftForeArm 9.167021 -0.000000 4.621311
LeftHand 9.958405 -0.000000 15.615935
LeftHandThumb1 -26.253704 0.000000 33.147579
RightShoulder 8.209340 22.003111 -25.857313
RightArm 29.881601 48.834464 73.317282
RightForeArm 49.450431 -0.000000 30.590900
RightHand 12.900524 -0.000000 -18.251685
RightHandThumb1 -24.326973 -0.000000 -32.862282
LeftUpLeg -8.223312 2.697650 25.353954
LeftLeg 12.350873 -0.000000 -0.000000
LeftFoot -7.680078 19.291010 -20.955913
LeftToeBase -10.870669 -0.000000 0.000000
RightUpLeg -56.200213 -36.501421 -15.523300
RightLeg 11.294508 -0.000000 -0.000000
RightFoot 42.210547 -13.722472 -0.685288
RightToeBase 20.951335 -0.000000 -0.000000
837
root 5.159951 34.689408 -3.994825 20.096437 -23.427317 -35.291068
Spine 7.992542 21.386231 26.870145
Head 3.607329 0.986955 2.263023
LeftShoulder -19.529276 33.104720 31.151623
LeftArm 50.372960 -73.293933 -53.504340
LeftForeArm 9.088133 0.000000 4.793187
LeftHand 9.928634 0.000000 15.616314
LeftHandThumb1 -26.253704 0.000000 33.147579
RightShoulder 8.045021 21.789337 -25.874469
RightArm 29.627129 48.867033 72.826079
RightForeArm 48.849113 0.000000 30.811154
RightHand 12.827788 -0.000000 -18.136734
RightHandThumb1 -24.326973 -0.000000 -32.862282
LeftUpLeg -8.278238 2.889264 25.234801
LeftLeg 12.118936 -0.000000 -0.000000
LeftFoot -7.694372 18.973550 -21.214610
LeftToeBase -10.353096 -0.000000 0.000000
RightUpLeg -55.129531 -36.034820 -15.236900
RightLeg 11.292008 -0.000000 -0.000000
RightFoot 42.296973 -13.896817 -0.517737
RightToeBase 20.996155 -0.000000 -0.000000
838
root 5.141081 34.687484 -3.985138 19.940270 -23.086287 -35.055532
Spine 7.763210 21.069281 26.529145
Head 4.046364 0.905574 2.484582
LeftShoulder -19.355590 33.033202 31.288719
LeftArm 50.610742 -73.058441 -53.509122
LeftForeArm 9.263061 -0.000000 4.977931
LeftHand 9.870672 -0.000000 15.400040
LeftHandThumb1 -26.253704 0.000000 33.147579
RightShoulder 7.817563 21.601363 -25.896007
RightArm 29.389850 48.838540 72.312855
RightForeArm 48.199205 -0.000000 30.937052
RightHand 12.924315 -0.000000 -18.148384
RightHandThumb1 -24.326973 -0.000000 -32.862282
LeftUpLeg -8.309742 3.023129 25.130335
LeftLeg 11.946616 -0.000000 -0.000000
LeftFoot -7.595487 18.647601 -21.248290
LeftToeBase -10.133450 -0.000000 0.000000
RightUpLeg -53.965167 -35.526078 -15.000382
RightLeg 11.216276 -0.000000 -0.000000
RightFoot 42.531814 -13.953339 -0.529665
RightToeBase 21.027620 -0.000000 -0.000000
839
root 5.118947 34.684637 -3.977701 19.803386 -22.767383 -34.845043
Spine 7.523961 20.750860 26.180015
Head 4.478187 0.837566 2.731662
LeftShoulder -19.205692 33.070852 31.425373
LeftArm 51.075218 -72.858748 -53.763078
LeftForeArm 9.304558 -0.000000 5.143865
LeftHand 9.931342 -0.000000 15.347726
LeftHandThumb1 -26.253704 0.000000 33.147579
RightShoulder 7.610846 21.430559 -25.898678
RightArm 29.074180 48.704075 71.697196
RightForeArm 47.502776 -0.000000 31.044820
RightHand 13.005287 -0.000000 -18.503625
RightHandThumb1 -24.326973 -0.000000 -32.862282
LeftUpLeg -8.368588 3.159427 25.045359
LeftLeg 11.840948 -0.000000 -0.000000
LeftFoot -7.448434 18.335017 -21.152499
LeftToeBase -10.175602 -0.000000 0.000000
RightUpLeg -52.831705 -34.990930 -14.718054
RightLeg 11.162047 -0.000000 -0.000000
RightFoot 42.499536 -14.016334 -0.218008
RightToeBase 21.138345 -0.000000 -0.000000
840
root 5.091842 34.678731 -3.968746 19.624250 -22.432609 -34.655458
Spine 7.311562 20.390631 25.845339
Head 4.905958 0.785802 3.082210
LeftShoulder -19.034768 33.108989 31.647277
LeftArm 51.629222 -72.671823 -54.209711
LeftForeArm 9.360863 0.000000 5.412046
LeftHand 9.868283 -0.000000 15.020253
LeftHandThumb1 -26.253704 0.000000 33.147579
RightShoulder 7.664863 21.821137 -25.947599
RightArm 27.474659 48.646597 70.292601
RightForeArm 47.067907 -0.000000 31.269399
RightHand 12.987460 -0.000000 -18.489706
RightHandThumb1 -24.326973 -0.000000 -32.862282
LeftUpLeg -8.400908 3.275678 24.985032
LeftLeg 11.775862 -0.000000 -0.000000
LeftFoot -7.308115 18.018548 -20.987200
LeftToeBase -10.278793 -0.000000 0.000000
RightUpLeg -51.583199 -34.374321 -14.496664
RightLeg 11.032422 -0.000000 -0.000000
RightFoot 42.502731 -14.024276 -0.103135
RightToeBase 21.090323 -0.000000 -0.000000
841
root 5.057617 34.677218 -3.957976 19.410181 -22.120032 -34.530444
Spine 7.211518 20.032208 25.608870
Head 5.278343 0.647979 3.319565
LeftShoulder -18.914762 33.142329 31.731933
LeftArm 52.047961 -72.501982 -54.428285
LeftForeArm 9.178688 -0.000000 5.636288
LeftHand 10.018726 0.000000 14.755356
LeftHandThumb1 -26.253704 0.000000 33.147579
RightShoulder 7.250462 21.353605 -25.980741
RightArm 27.922398 48.503833 70.255280
RightForeArm 46.469354 -0.000000 31.218139
RightHand 12.910516 -0.000000 -18.560107
RightHandThumb1 -24.326973 -0.000000 -32.862282
LeftUpLeg -8.348339 3.368722 24.988420
LeftLeg 11.700785 -0.000000 -0.000000
LeftFoot -7.192899 17.729973 -20.900783
LeftToeBase -10.351632 -0.000000 0.000000
RightUpLeg -50.289358 -33.701008 -14.196653
RightLeg 10.876902 -0.000000 -0.000000
RightFoot 42.430703 -13.940554 -0.054272
RightToeBase 20.289723 -0.000000 -0.000000
842
root 5.024930 34.671485 -3.949766 19.202073 -21.808415 -34.337491
Spine 7.069016 19.695808 25.267029
Head 5.598749 0.514433 3.651762
LeftShoulder -18.858415 33.298272 31.833758
LeftArm 53.016989 -72.285024 -55.215595
LeftForeArm 9.309517 -0.000000 5.860016
LeftHand 10.101958 -0.000000 14.571811
LeftHandThumb1 -26.253704 0.000000 33.147579
RightShoulder 6.943197 21.230405 -26.006623
RightArm 27.624764 48.386374 69.710892
RightForeArm 46.119927 -0.000000 31.159232
RightHand 12.947039 -0.000000 -18.494143
RightHandThumb1 -24.326973 -0.000000 -32.862282
LeftUpLeg -8.347800 3.329601 24.941981
LeftLeg 11.679458 -0.000000 -0.000000
LeftFoot -7.218893 17.406528 -21.112198
LeftToeBase -10.227055 -0.000000 0.000000
RightUpLeg -49.050463 -33.052076 -13.909149
RightLeg 10.681350 -0.000000 -0.000000
RightFoot 42.261246 -14.056966 0.236860
RightToeBase 20.960980 -0.000000 -0.000000
843
root 4.995932 34.658657 -3.934107 18.969423 -21.488737 -34.075484
Spine 6.892987 19.304965 24.876054
Head 5.953237 0.389911 3.958076
LeftShoulder -18.741309 33.307609 31.952372
LeftArm 53.373452 -72.047206 -55.384138
LeftForeArm 9.155174 -0.000000 6.082919
LeftHand 10.254291 -0.000000 14.442850
LeftHandThumb1 -26.253704 0.000000 33.147579
RightShoulder 6.694881 21.101141 -26.080280
RightArm 27.282895 48.352704 69.219507
RightForeArm 45.819256 -0.000000 31.130775
RightHand 12.895057 -0.000000 -18.393094
RightHandThumb1 -24.326973 -0.000000 -32.862282
LeftUpLeg -8.345885 3.373773 24.749937
LeftLeg 11.589557 -0.000000 -0.000000
LeftFoot -7.137046 17.395506 -20.670807
LeftToeBase -10.339023 -0.000000 0.000000
RightUpLeg -47.826043 -32.431308 -13.685547
RightLeg 10.543944 -0.000000 -0.000000
RightFoot 41.900110 -14.167203 0.644598
RightToeBase 21.139779 -0.000000 -0.000000
844
root 4.963789 34.645718 -3.919102 18.755589 -21.181919 -33.818605
Spine 6.695578 18.908907 24.462100
Head 6.326849 0.277668 4.277616
LeftShoulder -18.647594 33.335083 32.052179
LeftArm 53.611451 -71.757157 -55.393425
LeftForeArm 9.390013 -0.000000 6.285853
LeftHand 10.120233 -0.000000 14.440021
LeftHandThumb1 -26.253704 0.000000 33.147579
RightShoulder 6.490858 20.992575 -26.134270
RightArm 26.808154 48.253177 68.593392
RightForeArm 45.675477 0.000000 31.065443
RightHand 12.869796 -0.000000 -18.245112
RightHandThumb1 -24.326973 -0.000000 -32.862282
LeftUpLeg -8.333141 3.334722 24.582684
LeftLeg 11.495318 -0.000000 -0.000000
LeftFoot -7.085601 17.335828 -20.320296
LeftToeBase -10.395971 -0.000000 0.000000
RightUpLeg -46.635837 -31.773191 -13.429876
RightLeg 10.402026 -0.000000 -0.000000
RightFoot 41.542480 -14.293038 1.083514
RightToeBase 21.180032 -0.000000 -0.000000
845
root 4.929983 34.632534 -3.906251 18.594401 -20.877416 -33.588406
Spine 6.454634 18.542933 24.062567
Head 6.708682 0.166673 4.591166
LeftShoulder -18.495147 33.300030 32.160866
LeftArm 53.693190 -71.523800 -55.268016
LeftForeArm 9.400875 -0.000000 6.486213
LeftHand 10.276546 -0.000000 14.564005
LeftHandThumb1 -26.253704 0.000000 33.147579
RightShoulder 6.314255 20.822961 -26.191640
RightArm 26.396551 48.284594 68.049953
RightForeArm 45.353624 -0.000000 31.007311
RightHand 12.718491 0.000000 -17.892637
RightHandThumb1 -24.326973 -0.000000 -32.862282
LeftUpLeg -8.347799 3.248170 24.452857
LeftLeg 11.405500 -0.000000 -0.000000
LeftFoot -7.130481 17.249880 -20.170958
LeftToeBase -10.308151 -0.000000 0.000000
RightUpLeg -45.578979 -31.180731 -12.995296
RightLeg 10.276202 -0.000000 -0.000000
RightFoot 41.118062 -14.192748 1.444197
RightToeBase 21.294304 -0.000000 -0.000000
846
root 4.890706 34.620224 -3.891743 18.443335 -20.573374 -33.415093
Spine 6.188413 18.142527 23.738577
Head 7.228666 0.117911 4.807052
LeftShoulder -18.324439 33.331401 32.259198
LeftArm 54.024893 -71.378747 -55.486891
LeftForeArm 9.598078 0.000000 6.799152
LeftHand 10.200364 0.000000 14.499836
LeftHandThumb1 -26.253704 0.000000 33.147579
RightShoulder 6.266022 20.591952 -26.241396
RightArm 25.984930 48.388749 67.518650
RightForeArm 44.903125 -0.000000 30.969983
RightHand 12.563754 0.000000 -17.636815
RightHandThumb1 -24.326973 -0.000000 -32.862282
LeftUpLeg -8.311240 3.121470 24.399283
LeftLeg 11.256670 -0.000000 -0.000000
LeftFoot -7.222715 17.062567 -20.367418
LeftToeBase -10.365530 -0.000000 0.000000
RightUpLeg -44.541918 -30.605212 -12.430780
RightLeg 10.115202 -0.000000 -0.000000
RightFoot 40.787324 -14.168222 1.862992
RightToeBase 20.998277 -0.000000 -0.000000
